<?xml version="1.0" encoding="UTF-8"?> <svg xmlns="http://www.w3.org/2000/svg" width="1570pt" height="380pt" viewBox="0 0 1570 380" version="1.1"><g id="#ffffffff"> </g><g id="#0d3883ff"><path fill="#0d3883" opacity="1.00" d=" M 921.33 52.18 C 943.20 51.49 965.11 52.07 987.00 51.88 C 1010.00 51.88 1033.00 51.88 1056.00 51.88 C 1066.74 51.96 1077.60 51.35 1088.17 53.68 C 1115.98 59.43 1139.67 81.52 1147.05 108.99 C 1150.65 121.00 1149.65 133.64 1149.78 146.00 C 1149.78 181.35 1149.78 216.70 1149.78 252.06 C 1149.68 267.33 1144.80 282.52 1136.01 295.02 C 1121.80 315.68 1097.16 328.75 1072.05 328.66 C 1023.06 328.63 974.07 328.71 925.09 328.62 C 906.07 328.25 887.35 320.51 873.54 307.44 C 858.31 293.34 849.03 272.85 849.09 252.04 C 848.88 215.03 849.11 178.01 848.98 141.00 C 849.29 133.34 848.66 125.62 849.86 118.01 C 852.47 99.84 862.02 82.84 875.96 70.94 C 888.57 60.07 904.70 53.28 921.33 52.18 M 923.32 114.27 C 923.17 164.96 923.32 215.67 923.25 266.37 C 973.96 266.61 1024.68 266.30 1075.39 266.52 C 1075.83 215.77 1075.47 165.00 1075.58 114.25 C 1024.83 114.21 974.07 114.18 923.32 114.27 Z"></path><path fill="#0d3883" opacity="1.00" d=" M 1195.49 54.72 C 1205.96 54.02 1216.50 54.63 1227.00 54.43 C 1241.51 54.42 1256.03 54.44 1270.54 54.41 C 1270.66 98.36 1270.34 142.31 1270.70 186.25 C 1314.41 142.65 1357.51 98.40 1401.20 54.78 C 1429.11 54.38 1457.10 54.58 1485.03 54.68 C 1442.10 98.94 1398.83 142.88 1355.84 187.09 C 1398.71 233.50 1442.12 279.42 1484.99 325.83 C 1457.44 325.70 1429.89 325.92 1402.34 325.74 C 1358.41 279.44 1314.64 232.99 1270.60 186.79 C 1270.42 233.22 1270.70 279.64 1270.45 326.06 C 1245.51 326.19 1220.57 326.11 1195.62 326.10 C 1195.49 235.64 1195.76 145.18 1195.49 54.72 Z"></path><path fill="#0d3883" opacity="1.00" d=" M 93.06 70.06 C 101.08 59.91 114.15 54.21 127.01 54.56 C 205.02 54.64 283.04 54.50 361.05 54.63 C 361.09 73.24 361.27 91.87 360.95 110.47 C 296.62 110.54 232.29 110.49 167.97 110.50 C 165.94 110.44 163.46 111.00 162.68 113.15 C 162.29 115.07 162.41 117.04 162.38 118.99 C 162.49 139.97 162.27 160.94 162.49 181.91 C 219.33 181.90 276.16 181.91 333.00 181.91 C 338.46 181.93 343.92 181.78 349.38 182.12 C 349.47 200.55 349.43 218.98 349.41 237.42 C 287.09 237.54 224.77 237.41 162.45 237.48 C 162.32 267.02 162.49 296.57 162.36 326.11 C 136.66 326.08 110.96 326.26 85.26 326.03 C 85.15 249.00 85.26 171.97 85.21 94.94 C 85.00 86.10 87.53 77.05 93.06 70.06 Z"></path><path fill="#0d3883" opacity="1.00" d=" M 407.09 54.60 C 433.02 54.59 458.95 54.52 484.88 54.63 C 484.82 145.08 484.92 235.52 484.83 325.96 C 458.94 326.14 433.03 326.27 407.14 325.90 C 407.06 235.47 407.16 145.04 407.09 54.60 Z"></path><path fill="#0d3883" opacity="1.00" d=" M 530.94 54.62 C 627.23 54.56 723.53 54.55 819.82 54.62 C 819.82 73.05 819.90 91.48 819.78 109.91 C 784.63 110.36 749.47 109.92 714.32 110.13 C 714.35 182.12 714.37 254.11 714.31 326.10 C 688.39 326.12 662.47 326.21 636.55 326.05 C 636.41 254.09 636.45 182.12 636.52 110.15 C 601.35 109.87 566.17 110.42 531.01 109.88 C 530.75 91.46 530.86 73.03 530.94 54.62 Z"></path></g></svg> 